CD_DA
CD_TEXT { LANGUAGE_MAP { 0:EN }
    LANGUAGE 0 {
        TITLE "Snakes & Arrows"
        PERFORMER "Rush"
        DISC_ID "A60EB80D"
}}

//Track 1
TRACK AUDIO
    CD_TEXT { LANGUAGE 0 {
        TITLE "Far Cry"
        PERFORMER "Rush"
    }}
    AUDIOFILE "01-Far Cry.flac" 00:00:00

//Track 2
TRACK AUDIO
    CD_TEXT { LANGUAGE 0 {
        TITLE "Armor and Sword"
        PERFORMER "Rush"
    }}
    AUDIOFILE "02-Armor and Sword.flac" 00:00:00

//Track 3
TRACK AUDIO
    CD_TEXT { LANGUAGE 0 {
        TITLE "Workin' Them Angels"
        PERFORMER "Rush"
    }}
    AUDIOFILE "03-Workin' Them Angels.flac" 00:00:00

//Track 4
TRACK AUDIO
    CD_TEXT { LANGUAGE 0 {
        TITLE "The Larger Bowl"
        PERFORMER "Rush"
    }}
    AUDIOFILE "04-The Larger Bowl.flac" 00:00:00

//Track 5
TRACK AUDIO
    CD_TEXT { LANGUAGE 0 {
        TITLE "Spindrift "
        PERFORMER "Rush"
    }}
    AUDIOFILE "05-Spindrift.flac" 00:00:00

//Track 6
TRACK AUDIO
    CD_TEXT { LANGUAGE 0 {
        TITLE "The Main Monkey Business"
        PERFORMER "Rush"
    }}
    AUDIOFILE "06-The Main Monkey Business.flac" 00:00:00

//Track 7
TRACK AUDIO
    CD_TEXT { LANGUAGE 0 {
        TITLE "The Way the Wind Blows"
        PERFORMER "Rush"
    }}
    AUDIOFILE "07-The Way the Wind Blows.flac" 00:00:00

//Track 8
TRACK AUDIO
    CD_TEXT { LANGUAGE 0 {
        TITLE "Hope"
        PERFORMER "Rush"
    }}
    AUDIOFILE "08-Hope.flac" 00:00:00

//Track 9
TRACK AUDIO
    CD_TEXT { LANGUAGE 0 {
        TITLE "Faithless"
        PERFORMER "Rush"
    }}
    AUDIOFILE "09-Faithless.flac" 00:00:00 05:30:71

//Track 10
TRACK AUDIO
    CD_TEXT { LANGUAGE 0 {
        TITLE "Bravest Face"
        PERFORMER "Rush"
    }}
    AUDIOFILE "09-Faithless.flac" 05:30:71
    START
    AUDIOFILE "10-Bravest Face.flac" 00:00:00

//Track 11
TRACK AUDIO
    CD_TEXT { LANGUAGE 0 {
        TITLE "Good News First"
        PERFORMER "Rush"
    }}
    AUDIOFILE "11-Good News First.flac" 00:00:00 04:51:11

//Track 12
TRACK AUDIO
    CD_TEXT { LANGUAGE 0 {
        TITLE "Malignant Narcissism"
        PERFORMER "Rush"
    }}
    AUDIOFILE "11-Good News First.flac" 04:51:11
    START
    AUDIOFILE "12-Malignant Narcissism.flac" 00:00:00

//Track 13
TRACK AUDIO
    CD_TEXT { LANGUAGE 0 {
        TITLE "We Hold On"
        PERFORMER "Rush"
    }}
    AUDIOFILE "13-We Hold On.flac" 00:00:00
